<?xml version="1.0" encoding="UTF-8"?>
<svg xmlns="http://www.w3.org/2000/svg" version="1.1" width="200" height="200" viewBox="0 0 200 200"><rect x="0" y="0" width="200" height="200" fill="#ffffff"/><g transform="scale(9.524)"><g transform="translate(0,0)"><path fill-rule="evenodd" d="M11 0L11 2L13 2L13 1L12 1L12 0ZM9 1L9 4L8 4L8 5L10 5L10 8L9 8L9 6L8 6L8 8L6 8L6 9L9 9L9 10L5 10L5 9L4 9L4 8L2 8L2 9L3 9L3 10L4 10L4 11L3 11L3 12L2 12L2 11L1 11L1 9L0 9L0 11L1 11L1 12L0 12L0 13L4 13L4 12L5 12L5 11L8 11L8 12L6 12L6 13L8 13L8 15L9 15L9 14L10 14L10 15L11 15L11 17L10 17L10 16L9 16L9 17L8 17L8 19L9 19L9 21L13 21L13 20L14 20L14 21L16 21L16 20L17 20L17 21L18 21L18 19L19 19L19 21L20 21L20 20L21 20L21 19L19 19L19 18L20 18L20 17L21 17L21 16L20 16L20 17L19 17L19 18L17 18L17 17L18 17L18 15L19 15L19 12L20 12L20 13L21 13L21 11L19 11L19 12L18 12L18 15L17 15L17 14L16 14L16 13L17 13L17 12L16 12L16 13L15 13L15 12L14 12L14 10L15 10L15 11L18 11L18 10L21 10L21 9L18 9L18 10L16 10L16 9L17 9L17 8L16 8L16 9L15 9L15 8L13 8L13 6L12 6L12 7L11 7L11 5L13 5L13 3L12 3L12 4L11 4L11 5L10 5L10 1ZM10 8L10 9L11 9L11 10L10 10L10 11L9 11L9 12L8 12L8 13L10 13L10 14L14 14L14 15L15 15L15 18L14 18L14 16L12 16L12 17L13 17L13 18L14 18L14 20L16 20L16 17L17 17L17 15L16 15L16 14L15 14L15 13L13 13L13 12L12 12L12 11L13 11L13 10L12 10L12 9L13 9L13 8L12 8L12 9L11 9L11 8ZM10 12L10 13L12 13L12 12ZM20 14L20 15L21 15L21 14ZM9 17L9 19L10 19L10 20L11 20L11 18L10 18L10 17ZM0 0L0 7L7 7L7 0ZM1 1L1 6L6 6L6 1ZM2 2L2 5L5 5L5 2ZM14 0L14 7L21 7L21 0ZM15 1L15 6L20 6L20 1ZM16 2L16 5L19 5L19 2ZM0 14L0 21L7 21L7 14ZM1 15L1 20L6 20L6 15ZM2 16L2 19L5 19L5 16Z" fill="#000000"/></g></g></svg>
