<?xml version="1.0" encoding="UTF-8"?>
<svg xmlns="http://www.w3.org/2000/svg" version="1.1" width="200" height="200" viewBox="0 0 200 200"><rect x="0" y="0" width="200" height="200" fill="#ffffff"/><g transform="scale(9.524)"><g transform="translate(0,0)"><path fill-rule="evenodd" d="M8 0L8 3L9 3L9 5L8 5L8 9L7 9L7 8L6 8L6 9L7 9L7 10L6 10L6 11L9 11L9 12L5 12L5 10L3 10L3 9L5 9L5 8L2 8L2 10L3 10L3 11L1 11L1 12L0 12L0 13L1 13L1 12L2 12L2 13L3 13L3 12L4 12L4 13L8 13L8 14L12 14L12 13L13 13L13 15L10 15L10 16L8 16L8 19L9 19L9 21L12 21L12 20L11 20L11 19L9 19L9 18L10 18L10 16L11 16L11 17L13 17L13 16L14 16L14 14L15 14L15 15L16 15L16 14L15 14L15 13L14 13L14 12L16 12L16 13L17 13L17 14L18 14L18 13L20 13L20 12L21 12L21 11L20 11L20 10L19 10L19 9L21 9L21 8L18 8L18 13L17 13L17 10L16 10L16 8L12 8L12 7L13 7L13 6L12 6L12 5L13 5L13 3L12 3L12 2L11 2L11 0L10 0L10 3L9 3L9 0ZM11 3L11 4L10 4L10 5L9 5L9 7L10 7L10 8L9 8L9 9L11 9L11 10L12 10L12 12L10 12L10 13L12 13L12 12L14 12L14 10L12 10L12 8L11 8L11 7L12 7L12 6L11 6L11 4L12 4L12 3ZM10 6L10 7L11 7L11 6ZM9 10L9 11L10 11L10 10ZM15 10L15 11L16 11L16 10ZM19 11L19 12L20 12L20 11ZM19 14L19 15L21 15L21 14ZM17 15L17 16L18 16L18 18L16 18L16 16L15 16L15 17L14 17L14 19L13 19L13 21L14 21L14 19L15 19L15 20L16 20L16 21L19 21L19 20L20 20L20 19L19 19L19 16L18 16L18 15ZM15 18L15 19L16 19L16 18ZM17 19L17 20L18 20L18 19ZM0 0L0 7L7 7L7 0ZM1 1L1 6L6 6L6 1ZM2 2L2 5L5 5L5 2ZM14 0L14 7L21 7L21 0ZM15 1L15 6L20 6L20 1ZM16 2L16 5L19 5L19 2ZM0 14L0 21L7 21L7 14ZM1 15L1 20L6 20L6 15ZM2 16L2 19L5 19L5 16Z" fill="#000000"/></g></g></svg>
