<?xml version="1.0" encoding="UTF-8"?>
<svg xmlns="http://www.w3.org/2000/svg" version="1.1" width="200" height="200" viewBox="0 0 200 200"><rect x="0" y="0" width="200" height="200" fill="#ffffff"/><g transform="scale(9.524)"><g transform="translate(0,0)"><path fill-rule="evenodd" d="M8 0L8 2L9 2L9 0ZM11 0L11 1L10 1L10 4L9 4L9 3L8 3L8 7L9 7L9 8L11 8L11 9L12 9L12 10L11 10L11 12L10 12L10 11L8 11L8 10L10 10L10 9L8 9L8 10L5 10L5 9L4 9L4 8L3 8L3 9L0 9L0 11L1 11L1 13L2 13L2 12L4 12L4 13L8 13L8 14L11 14L11 15L9 15L9 17L8 17L8 18L9 18L9 21L12 21L12 20L13 20L13 21L14 21L14 20L13 20L13 19L15 19L15 21L16 21L16 17L14 17L14 18L13 18L13 16L15 16L15 15L14 15L14 14L15 14L15 13L16 13L16 15L18 15L18 17L19 17L19 18L17 18L17 20L18 20L18 21L19 21L19 20L20 20L20 19L21 19L21 16L20 16L20 15L21 15L21 12L20 12L20 10L21 10L21 8L19 8L19 10L18 10L18 8L15 8L15 10L14 10L14 9L12 9L12 7L13 7L13 6L12 6L12 5L13 5L13 2L11 2L11 1L12 1L12 0ZM11 3L11 4L10 4L10 6L9 6L9 7L10 7L10 6L11 6L11 7L12 7L12 6L11 6L11 4L12 4L12 3ZM6 8L6 9L7 9L7 8ZM16 9L16 10L17 10L17 12L16 12L16 13L17 13L17 14L18 14L18 15L19 15L19 14L20 14L20 12L19 12L19 11L18 11L18 10L17 10L17 9ZM4 10L4 12L7 12L7 11L5 11L5 10ZM12 10L12 11L13 11L13 12L12 12L12 13L13 13L13 12L14 12L14 13L15 13L15 12L14 12L14 10ZM18 12L18 14L19 14L19 12ZM11 15L11 16L13 16L13 15ZM9 17L9 18L11 18L11 19L12 19L12 18L11 18L11 17ZM19 18L19 19L18 19L18 20L19 20L19 19L20 19L20 18ZM0 0L0 7L7 7L7 0ZM1 1L1 6L6 6L6 1ZM2 2L2 5L5 5L5 2ZM14 0L14 7L21 7L21 0ZM15 1L15 6L20 6L20 1ZM16 2L16 5L19 5L19 2ZM0 14L0 21L7 21L7 14ZM1 15L1 20L6 20L6 15ZM2 16L2 19L5 19L5 16Z" fill="#000000"/></g></g></svg>
