<?xml version="1.0" encoding="UTF-8"?>
<svg xmlns="http://www.w3.org/2000/svg" version="1.1" width="200" height="200" viewBox="0 0 200 200"><rect x="0" y="0" width="200" height="200" fill="#ffffff"/><g transform="scale(9.524)"><g transform="translate(0,0)"><path fill-rule="evenodd" d="M8 0L8 3L9 3L9 5L8 5L8 10L6 10L6 9L7 9L7 8L6 8L6 9L5 9L5 8L2 8L2 9L3 9L3 10L1 10L1 9L0 9L0 13L1 13L1 12L2 12L2 13L3 13L3 12L4 12L4 11L5 11L5 10L6 10L6 11L8 11L8 10L9 10L9 9L11 9L11 10L13 10L13 11L14 11L14 12L12 12L12 11L9 11L9 12L6 12L6 13L8 13L8 14L9 14L9 16L8 16L8 19L9 19L9 20L13 20L13 19L14 19L14 20L16 20L16 21L19 21L19 20L20 20L20 19L19 19L19 16L18 16L18 15L17 15L17 16L18 16L18 18L16 18L16 16L15 16L15 15L16 15L16 14L15 14L15 15L14 15L14 14L12 14L12 16L11 16L11 18L9 18L9 16L10 16L10 15L11 15L11 13L10 13L10 12L12 12L12 13L15 13L15 12L16 12L16 13L17 13L17 14L18 14L18 13L19 13L19 10L20 10L20 9L21 9L21 8L18 8L18 13L17 13L17 10L16 10L16 8L13 8L13 6L12 6L12 5L13 5L13 4L12 4L12 5L11 5L11 6L10 6L10 7L9 7L9 5L10 5L10 3L11 3L11 2L12 2L12 0ZM9 1L9 2L10 2L10 1ZM11 6L11 7L10 7L10 8L11 8L11 9L12 9L12 8L11 8L11 7L12 7L12 6ZM4 9L4 10L3 10L3 11L4 11L4 10L5 10L5 9ZM13 9L13 10L14 10L14 11L16 11L16 10L15 10L15 9ZM20 12L20 13L21 13L21 12ZM9 13L9 14L10 14L10 13ZM19 14L19 15L21 15L21 14ZM13 15L13 16L14 16L14 15ZM11 18L11 19L13 19L13 18ZM15 18L15 19L16 19L16 18ZM17 19L17 20L18 20L18 19ZM0 0L0 7L7 7L7 0ZM1 1L1 6L6 6L6 1ZM2 2L2 5L5 5L5 2ZM14 0L14 7L21 7L21 0ZM15 1L15 6L20 6L20 1ZM16 2L16 5L19 5L19 2ZM0 14L0 21L7 21L7 14ZM1 15L1 20L6 20L6 15ZM2 16L2 19L5 19L5 16Z" fill="#000000"/></g></g></svg>
