<?xml version="1.0" encoding="UTF-8"?>
<svg xmlns="http://www.w3.org/2000/svg" version="1.1" width="200" height="200" viewBox="0 0 200 200"><rect x="0" y="0" width="200" height="200" fill="#ffffff"/><g transform="scale(9.524)"><g transform="translate(0,0)"><path fill-rule="evenodd" d="M8 0L8 3L10 3L10 4L11 4L11 3L12 3L12 2L13 2L13 1L12 1L12 2L10 2L10 1L11 1L11 0L10 0L10 1L9 1L9 0ZM12 4L12 5L11 5L11 6L10 6L10 5L8 5L8 9L9 9L9 6L10 6L10 7L11 7L11 8L10 8L10 10L9 10L9 11L8 11L8 12L6 12L6 11L7 11L7 10L6 10L6 11L5 11L5 8L2 8L2 9L0 9L0 11L1 11L1 12L0 12L0 13L2 13L2 11L3 11L3 12L6 12L6 13L8 13L8 14L9 14L9 13L8 13L8 12L9 12L9 11L10 11L10 10L11 10L11 13L10 13L10 14L11 14L11 15L12 15L12 14L11 14L11 13L12 13L12 12L14 12L14 13L13 13L13 15L14 15L14 16L13 16L13 17L12 17L12 18L13 18L13 19L14 19L14 20L16 20L16 21L19 21L19 20L20 20L20 19L19 19L19 16L18 16L18 15L17 15L17 16L18 16L18 18L16 18L16 16L15 16L15 15L16 15L16 14L15 14L15 12L16 12L16 13L17 13L17 14L18 14L18 13L19 13L19 15L21 15L21 14L20 14L20 13L21 13L21 11L20 11L20 12L19 12L19 9L20 9L20 10L21 10L21 8L18 8L18 13L17 13L17 10L16 10L16 8L13 8L13 9L12 9L12 7L13 7L13 6L12 6L12 5L13 5L13 4ZM11 6L11 7L12 7L12 6ZM6 8L6 9L7 9L7 8ZM2 9L2 10L3 10L3 11L4 11L4 10L3 10L3 9ZM12 10L12 11L13 11L13 10ZM15 10L15 11L16 11L16 10ZM14 14L14 15L15 15L15 14ZM8 16L8 19L9 19L9 20L11 20L11 21L13 21L13 20L11 20L11 19L9 19L9 18L11 18L11 16L10 16L10 17L9 17L9 16ZM14 16L14 18L15 18L15 19L16 19L16 18L15 18L15 16ZM17 19L17 20L18 20L18 19ZM0 0L0 7L7 7L7 0ZM1 1L1 6L6 6L6 1ZM2 2L2 5L5 5L5 2ZM14 0L14 7L21 7L21 0ZM15 1L15 6L20 6L20 1ZM16 2L16 5L19 5L19 2ZM0 14L0 21L7 21L7 14ZM1 15L1 20L6 20L6 15ZM2 16L2 19L5 19L5 16Z" fill="#000000"/></g></g></svg>
