<?xml version="1.0" encoding="UTF-8"?>
<svg xmlns="http://www.w3.org/2000/svg" version="1.1" width="200" height="200" viewBox="0 0 200 200"><rect x="0" y="0" width="200" height="200" fill="#ffffff"/><g transform="scale(9.524)"><g transform="translate(0,0)"><path fill-rule="evenodd" d="M12 0L12 1L13 1L13 0ZM10 1L10 2L8 2L8 4L9 4L9 6L8 6L8 7L9 7L9 8L12 8L12 7L13 7L13 6L12 6L12 7L11 7L11 6L10 6L10 4L11 4L11 3L12 3L12 5L13 5L13 3L12 3L12 2L11 2L11 1ZM10 2L10 3L11 3L11 2ZM9 6L9 7L10 7L10 6ZM3 8L3 9L4 9L4 11L5 11L5 8ZM6 8L6 9L7 9L7 10L6 10L6 11L7 11L7 12L5 12L5 13L8 13L8 15L10 15L10 17L9 17L9 16L8 16L8 18L9 18L9 19L10 19L10 17L11 17L11 14L12 14L12 15L13 15L13 16L12 16L12 18L11 18L11 20L9 20L9 21L11 21L11 20L12 20L12 21L13 21L13 19L14 19L14 20L15 20L15 17L16 17L16 18L18 18L18 20L17 20L17 19L16 19L16 20L17 20L17 21L20 21L20 20L21 20L21 18L19 18L19 16L18 16L18 15L17 15L17 14L18 14L18 13L19 13L19 8L17 8L17 9L16 9L16 11L17 11L17 14L16 14L16 13L14 13L14 11L15 11L15 9L14 9L14 10L13 10L13 9L11 9L11 10L12 10L12 13L11 13L11 14L9 14L9 12L11 12L11 11L10 11L10 9L8 9L8 8ZM0 9L0 11L1 11L1 12L2 12L2 13L4 13L4 12L2 12L2 11L3 11L3 10L2 10L2 11L1 11L1 9ZM17 9L17 10L18 10L18 9ZM20 9L20 10L21 10L21 9ZM8 11L8 12L9 12L9 11ZM20 11L20 17L21 17L21 11ZM13 14L13 15L14 15L14 14ZM14 16L14 17L15 17L15 16ZM16 16L16 17L17 17L17 16ZM19 19L19 20L20 20L20 19ZM0 0L0 7L7 7L7 0ZM1 1L1 6L6 6L6 1ZM2 2L2 5L5 5L5 2ZM14 0L14 7L21 7L21 0ZM15 1L15 6L20 6L20 1ZM16 2L16 5L19 5L19 2ZM0 14L0 21L7 21L7 14ZM1 15L1 20L6 20L6 15ZM2 16L2 19L5 19L5 16Z" fill="#000000"/></g></g></svg>
