<?xml version="1.0" encoding="UTF-8"?>
<svg xmlns="http://www.w3.org/2000/svg" version="1.1" width="200" height="200" viewBox="0 0 200 200"><rect x="0" y="0" width="200" height="200" fill="#ffffff"/><g transform="scale(9.524)"><g transform="translate(0,0)"><path fill-rule="evenodd" d="M11 0L11 3L12 3L12 4L11 4L11 5L12 5L12 9L11 9L11 6L10 6L10 7L9 7L9 5L10 5L10 4L9 4L9 1L8 1L8 7L9 7L9 8L5 8L5 10L3 10L3 11L2 11L2 12L1 12L1 11L0 11L0 12L1 12L1 13L2 13L2 12L3 12L3 11L5 11L5 13L8 13L8 16L9 16L9 15L10 15L10 16L11 16L11 19L10 19L10 20L9 20L9 21L12 21L12 20L11 20L11 19L12 19L12 18L13 18L13 19L14 19L14 20L13 20L13 21L14 21L14 20L15 20L15 17L21 17L21 16L19 16L19 15L18 15L18 14L21 14L21 11L19 11L19 10L20 10L20 8L15 8L15 9L14 9L14 8L13 8L13 5L12 5L12 4L13 4L13 3L12 3L12 2L13 2L13 0ZM2 8L2 9L1 9L1 10L2 10L2 9L3 9L3 8ZM6 9L6 10L7 10L7 9ZM9 9L9 10L8 10L8 11L6 11L6 12L10 12L10 10L11 10L11 9ZM13 9L13 10L12 10L12 11L11 11L11 12L12 12L12 13L11 13L11 14L13 14L13 15L12 15L12 17L14 17L14 16L13 16L13 15L14 15L14 14L13 14L13 13L16 13L16 14L17 14L17 12L19 12L19 13L20 13L20 12L19 12L19 11L17 11L17 10L19 10L19 9L15 9L15 10L14 10L14 9ZM13 10L13 11L12 11L12 12L14 12L14 10ZM16 11L16 12L17 12L17 11ZM9 13L9 14L10 14L10 13ZM16 15L16 16L17 16L17 15ZM9 17L9 18L8 18L8 19L9 19L9 18L10 18L10 17ZM18 18L18 19L19 19L19 20L18 20L18 21L21 21L21 20L20 20L20 19L21 19L21 18ZM16 19L16 20L17 20L17 19ZM0 0L0 7L7 7L7 0ZM1 1L1 6L6 6L6 1ZM2 2L2 5L5 5L5 2ZM14 0L14 7L21 7L21 0ZM15 1L15 6L20 6L20 1ZM16 2L16 5L19 5L19 2ZM0 14L0 21L7 21L7 14ZM1 15L1 20L6 20L6 15ZM2 16L2 19L5 19L5 16Z" fill="#000000"/></g></g></svg>
