<?xml version="1.0" encoding="UTF-8"?>
<svg xmlns="http://www.w3.org/2000/svg" version="1.1" width="200" height="200" viewBox="0 0 200 200"><rect x="0" y="0" width="200" height="200" fill="#ffffff"/><g transform="scale(9.524)"><g transform="translate(0,0)"><path fill-rule="evenodd" d="M10 0L10 2L11 2L11 1L12 1L12 0ZM12 2L12 3L13 3L13 2ZM10 3L10 4L8 4L8 5L10 5L10 7L9 7L9 6L8 6L8 8L6 8L6 9L8 9L8 10L6 10L6 11L5 11L5 9L4 9L4 8L2 8L2 10L1 10L1 9L0 9L0 10L1 10L1 11L0 11L0 13L1 13L1 12L3 12L3 13L4 13L4 12L6 12L6 13L8 13L8 15L9 15L9 17L8 17L8 19L11 19L11 16L12 16L12 17L14 17L14 18L12 18L12 19L13 19L13 20L12 20L12 21L13 21L13 20L14 20L14 21L16 21L16 20L17 20L17 21L18 21L18 19L19 19L19 21L20 21L20 20L21 20L21 19L19 19L19 18L20 18L20 17L21 17L21 16L20 16L20 17L19 17L19 18L17 18L17 17L18 17L18 15L19 15L19 14L20 14L20 15L21 15L21 12L20 12L20 11L21 11L21 10L19 10L19 9L18 9L18 10L16 10L16 9L17 9L17 8L16 8L16 9L15 9L15 8L13 8L13 9L11 9L11 6L12 6L12 7L13 7L13 4L11 4L11 3ZM9 8L9 9L10 9L10 10L9 10L9 13L10 13L10 10L11 10L11 11L12 11L12 12L13 12L13 11L15 11L15 12L14 12L14 13L13 13L13 15L12 15L12 13L11 13L11 15L12 15L12 16L14 16L14 13L16 13L16 14L15 14L15 19L14 19L14 20L16 20L16 17L17 17L17 15L18 15L18 12L19 12L19 13L20 13L20 12L19 12L19 10L18 10L18 11L15 11L15 9L13 9L13 11L12 11L12 10L11 10L11 9L10 9L10 8ZM3 10L3 12L4 12L4 10ZM6 11L6 12L8 12L8 11ZM16 12L16 13L17 13L17 12ZM9 14L9 15L10 15L10 14ZM16 14L16 15L17 15L17 14ZM9 20L9 21L11 21L11 20ZM0 0L0 7L7 7L7 0ZM1 1L1 6L6 6L6 1ZM2 2L2 5L5 5L5 2ZM14 0L14 7L21 7L21 0ZM15 1L15 6L20 6L20 1ZM16 2L16 5L19 5L19 2ZM0 14L0 21L7 21L7 14ZM1 15L1 20L6 20L6 15ZM2 16L2 19L5 19L5 16Z" fill="#000000"/></g></g></svg>
