<?xml version="1.0" encoding="UTF-8"?>
<svg xmlns="http://www.w3.org/2000/svg" version="1.1" width="200" height="200" viewBox="0 0 200 200"><rect x="0" y="0" width="200" height="200" fill="#ffffff"/><g transform="scale(9.524)"><g transform="translate(0,0)"><path fill-rule="evenodd" d="M10 0L10 1L11 1L11 2L12 2L12 3L13 3L13 2L12 2L12 1L11 1L11 0ZM8 2L8 4L9 4L9 5L10 5L10 7L11 7L11 8L9 8L9 11L8 11L8 8L6 8L6 9L7 9L7 10L5 10L5 11L4 11L4 10L3 10L3 9L5 9L5 8L3 8L3 9L2 9L2 10L3 10L3 12L2 12L2 13L3 13L3 12L4 12L4 13L5 13L5 12L6 12L6 13L8 13L8 15L11 15L11 16L10 16L10 17L9 17L9 16L8 16L8 18L9 18L9 19L10 19L10 21L11 21L11 20L13 20L13 21L15 21L15 18L14 18L14 19L12 19L12 18L11 18L11 17L12 17L12 15L11 15L11 14L13 14L13 13L14 13L14 11L15 11L15 9L14 9L14 10L13 10L13 5L11 5L11 3L10 3L10 4L9 4L9 2ZM8 6L8 7L9 7L9 6ZM11 6L11 7L12 7L12 6ZM11 8L11 9L10 9L10 10L11 10L11 11L9 11L9 12L11 12L11 11L12 11L12 13L13 13L13 11L12 11L12 8ZM17 8L17 9L16 9L16 11L17 11L17 14L16 14L16 13L15 13L15 14L14 14L14 15L13 15L13 16L14 16L14 17L16 17L16 18L18 18L18 20L17 20L17 19L16 19L16 20L17 20L17 21L20 21L20 20L21 20L21 18L19 18L19 16L18 16L18 15L17 15L17 14L18 14L18 13L19 13L19 14L20 14L20 17L21 17L21 14L20 14L20 11L19 11L19 8ZM17 9L17 10L18 10L18 9ZM20 9L20 10L21 10L21 9ZM6 11L6 12L7 12L7 11ZM10 13L10 14L11 14L11 13ZM14 15L14 16L15 16L15 15ZM16 16L16 17L17 17L17 16ZM10 18L10 19L11 19L11 18ZM19 19L19 20L20 20L20 19ZM0 0L0 7L7 7L7 0ZM1 1L1 6L6 6L6 1ZM2 2L2 5L5 5L5 2ZM14 0L14 7L21 7L21 0ZM15 1L15 6L20 6L20 1ZM16 2L16 5L19 5L19 2ZM0 14L0 21L7 21L7 14ZM1 15L1 20L6 20L6 15ZM2 16L2 19L5 19L5 16Z" fill="#000000"/></g></g></svg>
