<?xml version="1.0" encoding="UTF-8"?>
<svg xmlns="http://www.w3.org/2000/svg" version="1.1" width="200" height="200" viewBox="0 0 200 200"><rect x="0" y="0" width="200" height="200" fill="#ffffff"/><g transform="scale(9.524)"><g transform="translate(0,0)"><path fill-rule="evenodd" d="M9 0L9 1L8 1L8 7L9 7L9 8L5 8L5 9L4 9L4 10L3 10L3 8L2 8L2 12L0 12L0 13L2 13L2 12L3 12L3 13L4 13L4 12L6 12L6 13L7 13L7 12L6 12L6 11L7 11L7 10L6 10L6 9L9 9L9 10L10 10L10 9L12 9L12 8L13 8L13 9L14 9L14 8L13 8L13 6L12 6L12 7L11 7L11 5L12 5L12 4L11 4L11 5L10 5L10 3L9 3L9 2L10 2L10 1L11 1L11 0ZM12 0L12 3L13 3L13 0ZM9 5L9 7L10 7L10 5ZM9 8L9 9L10 9L10 8ZM15 8L15 9L19 9L19 10L17 10L17 11L16 11L16 12L17 12L17 14L16 14L16 13L12 13L12 14L11 14L11 13L10 13L10 14L9 14L9 13L8 13L8 16L9 16L9 15L10 15L10 17L9 17L9 18L8 18L8 19L10 19L10 18L11 18L11 20L9 20L9 21L13 21L13 20L15 20L15 19L14 19L14 18L13 18L13 17L21 17L21 16L19 16L19 15L18 15L18 14L21 14L21 10L20 10L20 8ZM0 9L0 10L1 10L1 9ZM5 10L5 11L6 11L6 10ZM11 10L11 11L12 11L12 10ZM14 10L14 12L15 12L15 10ZM8 11L8 12L10 12L10 11ZM17 11L17 12L19 12L19 13L20 13L20 12L19 12L19 11ZM10 14L10 15L11 15L11 14ZM12 14L12 17L13 17L13 16L15 16L15 15L14 15L14 14ZM16 15L16 16L17 16L17 15ZM18 18L18 19L19 19L19 20L18 20L18 21L21 21L21 20L20 20L20 19L21 19L21 18ZM12 19L12 20L13 20L13 19ZM16 19L16 20L17 20L17 19ZM0 0L0 7L7 7L7 0ZM1 1L1 6L6 6L6 1ZM2 2L2 5L5 5L5 2ZM14 0L14 7L21 7L21 0ZM15 1L15 6L20 6L20 1ZM16 2L16 5L19 5L19 2ZM0 14L0 21L7 21L7 14ZM1 15L1 20L6 20L6 15ZM2 16L2 19L5 19L5 16Z" fill="#000000"/></g></g></svg>
